<?xml version="1.0" encoding="utf-8"?>
<!-- Generator: Adobe Illustrator 16.0.0, SVG Export Plug-In . SVG Version: 6.00 Build 0)  -->
<!DOCTYPE svg PUBLIC "-//W3C//DTD SVG 1.1//EN" "http://www.w3.org/Graphics/SVG/1.1/DTD/svg11.dtd">
<svg version="1.1" id="圖層_1" xmlns="http://www.w3.org/2000/svg" xmlns:xlink="http://www.w3.org/1999/xlink" x="0px" y="0px"
	 width="347.338px" height="100.448px" viewBox="0 0 347.338 100.448" enable-background="new 0 0 347.338 100.448"
	 xml:space="preserve">
<g>
	<path fill="#666666" d="M133.295,50.227c0,15.025-12.184,27.206-27.205,27.206c-15.027,0-27.203-12.181-27.203-27.206
		c0-15.024,12.176-27.206,27.203-27.206C121.111,23.021,133.295,35.202,133.295,50.227z"/>
	<g>
		<g>
			<path fill="#FFFFFF" d="M192.59,4.177c0.326,0,0.891,0.009,1.693,0.02c0.803,0.019,1.695,0.021,2.674,0.021
				c0.982,0,1.975,0.009,2.986,0.021c1.004,0.017,1.877,0.021,2.611,0.021c0.49,1.174,0.988,2.33,1.492,3.475
				c0.502,1.141,1.014,2.301,1.533,3.47l11.559,25.734h0.121l11.314-26.266c0.465-1.063,0.914-2.129,1.35-3.205
				c0.434-1.075,0.869-2.146,1.309-3.208c0.514,0,1.258-0.004,2.225-0.021c0.967-0.013,1.953-0.021,2.961-0.021
				c1.035,0,2.002-0.003,2.902-0.021c0.896-0.011,1.537-0.02,1.916-0.02l0.082,1.39c-1.197,0.082-2.158,0.214-2.877,0.39
				c-0.725,0.176-1.275,0.449-1.656,0.818c-0.379,0.366-0.625,0.877-0.734,1.531c-0.109,0.649-0.15,1.484-0.121,2.489l0.855,27.492
				c0.027,0.653,0.115,1.196,0.268,1.635c0.148,0.433,0.42,0.797,0.816,1.078c0.393,0.287,0.953,0.5,1.676,0.635
				c0.719,0.139,1.68,0.231,2.877,0.287l-0.08,1.47c-0.49,0-1.063-0.004-1.717-0.02c-0.652-0.012-1.346-0.021-2.082-0.021
				c-0.707,0-1.43-0.003-2.164-0.019c-0.736-0.013-1.432-0.021-2.084-0.021c-0.545,0-1.109,0.009-1.693,0.021
				c-0.588,0.016-1.166,0.019-1.738,0.019s-1.115,0.01-1.635,0.021c-0.516,0.016-0.967,0.02-1.348,0.02l-0.121-1.389
				c0.979-0.081,1.764-0.209,2.348-0.389c0.584-0.176,1.033-0.453,1.348-0.834c0.313-0.384,0.504-0.896,0.574-1.533
				c0.064-0.642,0.086-1.464,0.061-2.473l-0.736-25.938l-0.121-0.122c-2.398,5.53-4.762,11.007-7.088,16.443
				c-2.33,5.433-4.652,10.954-6.965,16.563l-1.961,0.244c-2.316-5.391-4.637-10.635-6.965-15.729
				c-2.328-5.089-4.689-10.291-7.088-15.6l-0.162,0.08l-0.816,23.527c-0.057,1.279-0.029,2.281,0.082,3.004
				c0.105,0.721,0.338,1.268,0.691,1.636c0.355,0.364,0.859,0.608,1.512,0.731s1.5,0.225,2.533,0.308l-0.08,1.47
				c-0.875,0-1.811-0.012-2.82-0.041c-1.008-0.025-2.162-0.04-3.471-0.04c-1.037,0-2.117,0.015-3.248,0.04
				c-1.131,0.029-2.172,0.041-3.125,0.041l-0.121-1.389c1.115-0.107,2.025-0.236,2.736-0.389c0.707-0.147,1.264-0.453,1.672-0.916
				c0.408-0.466,0.695-1.161,0.859-2.085c0.164-0.927,0.271-2.205,0.328-3.842l0.857-21.114c0.025-0.981,0.025-1.819,0-2.514
				c-0.029-0.696-0.096-1.293-0.203-1.8c-0.111-0.502-0.26-0.933-0.451-1.284c-0.193-0.354-0.436-0.681-0.734-0.979
				c-0.518-0.52-1.172-0.871-1.961-1.063c-0.793-0.191-1.703-0.313-2.736-0.368L192.59,4.177z"/>
			<path fill="#FFFFFF" d="M247.498,31.997c0-1.741,0.318-3.394,0.959-4.941c0.641-1.555,1.512-2.902,2.615-4.048
				c1.102-1.143,2.402-2.048,3.898-2.714c1.498-0.666,3.105-1.002,4.822-1.002c1.852,0,3.537,0.318,5.064,0.96
				c1.525,0.64,2.824,1.511,3.9,2.614c1.074,1.104,1.906,2.398,2.494,3.883c0.584,1.482,0.877,3.069,0.877,4.757
				c0,1.771-0.322,3.426-0.959,4.962c-0.643,1.541-1.512,2.882-2.615,4.027c-1.102,1.14-2.41,2.047-3.92,2.713
				c-1.514,0.667-3.129,1.002-4.842,1.002c-1.852,0-3.535-0.318-5.047-0.961c-1.51-0.637-2.803-1.512-3.879-2.611
				c-1.078-1.105-1.906-2.4-2.494-3.884C247.789,35.27,247.498,33.685,247.498,31.997z M260.322,42.206
				c1.199,0,2.227-0.284,3.086-0.857c0.857-0.568,1.564-1.304,2.123-2.203c0.557-0.898,0.967-1.905,1.225-3.025
				c0.258-1.115,0.389-2.231,0.389-3.347c0-1.308-0.143-2.642-0.428-4.007c-0.287-1.361-0.744-2.59-1.369-3.694
				c-0.629-1.103-1.438-2.007-2.432-2.719c-0.992-0.706-2.197-1.058-3.613-1.058c-1.227,0-2.268,0.277-3.125,0.833
				c-0.859,0.56-1.561,1.288-2.104,2.187c-0.545,0.9-0.947,1.904-1.205,3.025c-0.262,1.115-0.389,2.232-0.389,3.348
				c0,1.255,0.15,2.559,0.449,3.921c0.299,1.366,0.762,2.604,1.391,3.718c0.625,1.117,1.436,2.046,2.428,2.775
				C257.742,41.839,258.934,42.206,260.322,42.206z"/>
			<path fill="#FFFFFF" d="M288.475,44.169c-1.17-3.294-2.389-6.466-3.654-9.521c-1.266-3.048-2.555-6.099-3.861-9.147
				c-0.354-0.816-0.674-1.47-0.959-1.961c-0.285-0.492-0.613-0.871-0.98-1.145c-0.367-0.27-0.803-0.463-1.309-0.573
				c-0.504-0.105-1.15-0.188-1.939-0.245l0.082-1.508c0.898,0,1.904,0.012,3.023,0.04c1.115,0.024,2.285,0.042,3.512,0.042
				c1.063,0,2.035-0.018,2.92-0.042c0.887-0.028,1.725-0.04,2.512-0.04l0.084,1.35c-1.092,0.134-1.852,0.298-2.287,0.485
				c-0.436,0.191-0.656,0.521-0.656,0.981c0,0.221,0.049,0.487,0.145,0.797c0.096,0.314,0.211,0.662,0.348,1.043l5.229,13.03
				l5.514-13.113c0.137-0.351,0.252-0.673,0.348-0.96c0.096-0.286,0.145-0.536,0.145-0.756c0-0.434-0.24-0.777-0.715-1.022
				c-0.48-0.243-1.328-0.392-2.555-0.446l0.082-1.389c0.844,0,1.676,0.012,2.492,0.04c0.818,0.024,1.852,0.042,3.105,0.042
				c0.951,0,1.789-0.018,2.51-0.042c0.723-0.028,1.424-0.04,2.104-0.04l0.082,1.308c-0.816,0.106-1.469,0.229-1.961,0.365
				c-0.49,0.138-0.92,0.347-1.287,0.633s-0.701,0.673-1,1.165c-0.299,0.491-0.652,1.145-1.061,1.961
				c-0.49,0.953-1.043,2.085-1.654,3.389c-0.613,1.309-1.268,2.751-1.961,4.332c-0.697,1.578-1.424,3.283-2.186,5.105
				c-0.764,1.824-1.539,3.716-2.328,5.679L288.475,44.169z"/>
			<path fill="#FFFFFF" d="M319.322,43.392c-0.871,0-1.918-0.012-3.141-0.041c-1.227-0.025-2.494-0.04-3.801-0.04
				c-1.063,0-2.1,0.015-3.105,0.04c-1.008,0.029-1.893,0.041-2.656,0.041l-0.082-1.307c0.9-0.082,1.615-0.196,2.146-0.348
				c0.529-0.147,0.945-0.401,1.246-0.757c0.299-0.352,0.494-0.833,0.592-1.448c0.096-0.611,0.143-1.438,0.143-2.472V26.319
				c0-0.765-0.041-1.361-0.123-1.799c-0.08-0.434-0.252-0.775-0.51-1.021c-0.26-0.246-0.641-0.434-1.143-0.572
				c-0.506-0.136-1.164-0.269-1.982-0.409l-0.123-1.181c0.844-0.163,1.695-0.335,2.555-0.512c0.855-0.18,1.66-0.364,2.41-0.552
				c0.746-0.192,1.416-0.367,2-0.53c0.584-0.164,1.027-0.314,1.328-0.451l0.408,0.329c-0.08,0.677-0.15,1.401-0.203,2.161
				c-0.057,0.764-0.098,1.52-0.123,2.268c-0.027,0.748-0.049,1.46-0.063,2.127c-0.014,0.666-0.02,1.247-0.02,1.736v10.824
				c0,0.654,0.041,1.177,0.121,1.572c0.084,0.394,0.268,0.699,0.553,0.916c0.287,0.221,0.715,0.369,1.287,0.45
				c0.57,0.08,1.361,0.151,2.367,0.204L319.322,43.392z M309.809,9.485c0-0.894,0.27-1.625,0.814-2.18
				c0.547-0.561,1.268-0.84,2.164-0.84c0.953,0,1.709,0.279,2.27,0.84c0.557,0.555,0.838,1.286,0.838,2.18
				c0,0.9-0.281,1.633-0.838,2.189c-0.561,0.559-1.316,0.837-2.27,0.837c-0.896,0-1.617-0.278-2.164-0.837
				C310.078,11.118,309.809,10.386,309.809,9.485z"/>
			<path fill="#FFFFFF" d="M345.066,38.859c-0.871,1.144-1.771,2.064-2.697,2.755c-0.926,0.696-1.811,1.233-2.654,1.613
				c-0.844,0.381-1.619,0.642-2.328,0.778c-0.709,0.134-1.268,0.204-1.676,0.204c-1.715,0-3.279-0.327-4.697-0.982
				c-1.416-0.653-2.627-1.532-3.635-2.632c-1.008-1.103-1.789-2.397-2.348-3.882c-0.561-1.484-0.838-3.059-0.838-4.717
				c0-1.799,0.332-3.467,1-5.004c0.668-1.541,1.547-2.882,2.635-4.025c1.088-1.146,2.344-2.039,3.756-2.694
				c1.418-0.652,2.891-0.981,4.414-0.981c1.227,0,2.398,0.196,3.514,0.594c1.115,0.392,2.09,0.96,2.918,1.691
				c0.834,0.736,1.5,1.623,2.004,2.658c0.504,1.032,0.754,2.19,0.754,3.474v0.568c0,0.355-0.012,0.547-0.041,0.573
				c-0.135,0.733-0.516,1.104-1.143,1.104h-15.439c0.027,1.878,0.311,3.486,0.855,4.817c0.547,1.337,1.248,2.429,2.107,3.271
				c0.854,0.846,1.814,1.463,2.879,1.86c1.063,0.392,2.107,0.593,3.145,0.593c1.115,0,2.18-0.193,3.188-0.573
				c1.004-0.385,2.066-1.132,3.186-2.248L345.066,38.859z M339.021,28.114c0.543,0,0.898-0.1,1.061-0.304
				c0.166-0.204,0.248-0.552,0.248-1.042c0-0.734-0.133-1.43-0.391-2.084c-0.258-0.653-0.627-1.227-1.104-1.717
				c-0.475-0.491-1.061-0.872-1.756-1.146c-0.695-0.27-1.465-0.403-2.307-0.403c-0.654,0-1.301,0.146-1.941,0.446
				c-0.639,0.3-1.238,0.733-1.797,1.307s-1.041,1.275-1.451,2.106c-0.408,0.828-0.693,1.777-0.855,2.836H339.021z"/>
			<path fill="#FFFFFF" d="M202.816,93.145c0,0.653,0.041,1.206,0.123,1.655c0.08,0.449,0.326,0.825,0.734,1.124
				s1.029,0.523,1.859,0.675c0.83,0.146,1.994,0.235,3.49,0.265l-0.08,1.467c-1.469,0-3.008-0.012-4.615-0.04
				c-1.605-0.023-3.064-0.041-4.369-0.041c-0.52,0-1.092,0.008-1.717,0.021c-0.629,0.017-1.252,0.021-1.881,0.021
				c-0.6,0-1.168,0.008-1.715,0.02c-0.545,0.018-1.006,0.021-1.387,0.021l-0.082-1.386c1.061-0.081,1.912-0.211,2.551-0.388
				c0.641-0.181,1.139-0.45,1.492-0.817s0.592-0.869,0.715-1.512c0.123-0.638,0.184-1.477,0.184-2.514V64.226
				c0-0.654-0.055-1.198-0.164-1.635c-0.109-0.438-0.334-0.797-0.674-1.085c-0.34-0.284-0.85-0.492-1.533-0.631
				c-0.678-0.136-1.59-0.229-2.732-0.287l0.08-1.472c0.434,0,0.943,0.008,1.531,0.021c0.586,0.017,1.217,0.021,1.898,0.021
				c0.684,0,1.375,0.009,2.086,0.02c0.705,0.018,1.389,0.021,2.039,0.021c0.98,0,2.1-0.065,3.35-0.204
				c1.254-0.136,2.494-0.205,3.719-0.205c1.934,0,3.779,0.192,5.535,0.572c1.758,0.385,3.295,1.011,4.615,1.881
				c1.32,0.869,2.375,2.024,3.166,3.453c0.789,1.427,1.184,3.181,1.184,5.248c0,2.098-0.422,3.92-1.266,5.474
				s-1.947,2.845-3.309,3.879c-1.361,1.038-2.885,1.811-4.576,2.331c-1.688,0.519-3.389,0.774-5.105,0.774
				c-1.035,0-2.02-0.068-2.961-0.204c-0.939-0.135-1.668-0.313-2.186-0.53V93.145z M202.816,79.624
				c0.625,0.191,1.293,0.334,2.002,0.428c0.707,0.098,1.496,0.144,2.369,0.144c1.063,0,2.15-0.164,3.268-0.49
				c1.115-0.327,2.131-0.88,3.043-1.651c0.914-0.777,1.668-1.807,2.266-3.086c0.602-1.28,0.9-2.887,0.9-4.818
				c0-3.133-0.85-5.449-2.553-6.947s-4.078-2.247-7.129-2.247c-0.955,0-1.701,0.059-2.246,0.164
				c-0.545,0.11-0.959,0.282-1.246,0.511c-0.285,0.233-0.471,0.539-0.551,0.92c-0.082,0.379-0.123,0.858-0.123,1.432V79.624z"/>
			<path fill="#FFFFFF" d="M227.742,86.937c0-1.743,0.318-3.389,0.959-4.942c0.643-1.554,1.514-2.902,2.615-4.042
				c1.102-1.146,2.404-2.053,3.9-2.72c1.498-0.666,3.105-1,4.82-1c1.852,0,3.541,0.317,5.068,0.96
				c1.523,0.643,2.822,1.512,3.898,2.615c1.074,1.1,1.906,2.395,2.492,3.879s0.877,3.07,0.877,4.759c0,1.77-0.32,3.425-0.959,4.961
				c-0.641,1.541-1.512,2.882-2.615,4.026c-1.102,1.145-2.408,2.049-3.92,2.715c-1.512,0.67-3.127,1.001-4.842,1.001
				c-1.852,0-3.533-0.319-5.045-0.961c-1.51-0.638-2.805-1.508-3.879-2.612c-1.078-1.104-1.908-2.395-2.494-3.883
				C228.037,90.208,227.742,88.623,227.742,86.937z M240.568,97.149c1.199,0,2.227-0.286,3.084-0.858
				c0.859-0.573,1.566-1.309,2.125-2.207c0.557-0.897,0.967-1.905,1.225-3.024c0.258-1.116,0.389-2.232,0.389-3.349
				c0-1.308-0.143-2.64-0.43-4c-0.283-1.362-0.74-2.597-1.369-3.7s-1.436-2.006-2.43-2.713c-0.992-0.713-2.199-1.063-3.615-1.063
				c-1.225,0-2.266,0.278-3.125,0.838c-0.857,0.556-1.559,1.282-2.102,2.183c-0.547,0.899-0.947,1.908-1.205,3.024
				c-0.262,1.116-0.389,2.233-0.389,3.349c0,1.254,0.148,2.562,0.449,3.924c0.299,1.362,0.762,2.599,1.389,3.716
				c0.625,1.114,1.436,2.043,2.43,2.779C237.986,96.781,239.18,97.149,240.568,97.149z"/>
			<path fill="#FFFFFF" d="M273.703,81.994c-0.08-0.847-0.291-1.626-0.631-2.351c-0.342-0.72-0.791-1.34-1.35-1.855
				c-0.557-0.52-1.203-0.92-1.939-1.207c-0.736-0.285-1.527-0.428-2.371-0.428c-0.518,0-1.012,0.081-1.49,0.245
				c-0.477,0.163-0.898,0.392-1.266,0.694c-0.367,0.299-0.66,0.674-0.877,1.12c-0.219,0.449-0.328,0.961-0.328,1.534
				c0,0.681,0.17,1.274,0.512,1.776c0.34,0.503,0.789,0.952,1.348,1.349c0.559,0.393,1.197,0.74,1.92,1.042
				c0.723,0.299,1.461,0.599,2.227,0.896c0.844,0.355,1.68,0.731,2.512,1.125c0.83,0.396,1.572,0.857,2.225,1.39
				c0.654,0.531,1.178,1.164,1.574,1.9c0.395,0.735,0.592,1.606,0.592,2.611c0,1.282-0.273,2.379-0.816,3.29
				c-0.545,0.91-1.252,1.668-2.127,2.27c-0.869,0.595-1.855,1.038-2.957,1.324c-1.105,0.286-2.213,0.429-3.332,0.429
				c-0.709,0-1.422-0.054-2.145-0.164c-0.721-0.105-1.395-0.229-2.02-0.367c-0.574-0.136-1.125-0.267-1.656-0.388
				c-0.531-0.122-1.109-0.209-1.734-0.267c-0.027-0.461-0.076-1.047-0.145-1.753c-0.066-0.707-0.143-1.43-0.223-2.166
				c-0.082-0.735-0.172-1.435-0.268-2.105c-0.096-0.668-0.199-1.19-0.307-1.57l1.389-0.366c0.381,0.923,0.805,1.822,1.266,2.693
				c0.465,0.874,1.016,1.642,1.656,2.31c0.639,0.666,1.369,1.205,2.186,1.613c0.816,0.409,1.783,0.613,2.9,0.613
				c1.061,0,2.002-0.295,2.818-0.879c0.816-0.589,1.225-1.48,1.225-2.678c0-0.678-0.158-1.287-0.469-1.817
				c-0.314-0.533-0.736-0.999-1.268-1.407c-0.529-0.408-1.131-0.772-1.797-1.082c-0.666-0.316-1.369-0.623-2.102-0.921
				c-0.844-0.356-1.684-0.728-2.514-1.123c-0.83-0.394-1.574-0.859-2.227-1.39c-0.654-0.531-1.186-1.167-1.592-1.896
				c-0.408-0.737-0.613-1.624-0.613-2.658c0-1.25,0.266-2.328,0.797-3.229c0.529-0.896,1.213-1.639,2.041-2.223
				c0.83-0.585,1.779-1.016,2.84-1.289c1.063-0.27,2.123-0.407,3.186-0.407c1.088,0,2.17,0.11,3.248,0.326
				c1.074,0.217,2.295,0.354,3.656,0.409c-0.082,0.87-0.139,1.695-0.166,2.472c-0.027,0.773-0.041,1.612-0.041,2.51v2.003
				L273.703,81.994z"/>
			<path fill="#FFFFFF" d="M289.521,66.469c-0.057,0.656-0.102,1.411-0.143,2.269c-0.041,0.859-0.076,1.717-0.104,2.577
				c-0.027,0.853-0.047,1.658-0.061,2.405c-0.014,0.753-0.02,1.359-0.02,1.819l6.986-0.122l0.324,0.286l-0.121,2.085h-7.189v13.153
				c0,1.058,0.102,1.933,0.307,2.611c0.203,0.683,0.49,1.228,0.855,1.636c0.367,0.407,0.797,0.687,1.287,0.838
				c0.49,0.147,1.021,0.226,1.592,0.226c0.602,0,1.227-0.07,1.881-0.205c0.654-0.14,1.291-0.276,1.92-0.409l0.285,1.472
				c-1.061,0.515-2.205,0.956-3.432,1.324c-1.225,0.366-2.408,0.551-3.555,0.551c-0.787,0-1.518-0.102-2.184-0.306
				c-0.668-0.203-1.26-0.552-1.779-1.043c-0.516-0.486-0.916-1.136-1.203-1.937c-0.285-0.806-0.428-1.791-0.428-2.964V91.63
				c0-0.488,0.006-1.277,0.02-2.365c0.014-1.09,0.021-2.547,0.021-4.373v-7.104h-3.678l-0.287-0.285l0.166-1.596l3.799-0.286v-3.392
				c0-0.679-0.008-1.375-0.021-2.08c-0.014-0.708-0.02-1.391-0.02-2.044c0.408-0.164,0.83-0.331,1.266-0.512
				c0.438-0.177,0.857-0.347,1.266-0.511c0.408-0.163,0.77-0.319,1.084-0.47c0.313-0.147,0.551-0.278,0.715-0.388L289.521,66.469z"
				/>
			<path fill="#FFFFFF" d="M322.74,93.798c-0.873,1.145-1.771,2.064-2.697,2.759c-0.926,0.695-1.811,1.229-2.656,1.612
				c-0.844,0.383-1.619,0.64-2.328,0.775c-0.707,0.139-1.268,0.204-1.676,0.204c-1.713,0-3.281-0.326-4.695-0.979
				c-1.416-0.652-2.629-1.53-3.637-2.634c-1.006-1.103-1.791-2.395-2.348-3.883c-0.559-1.483-0.838-3.054-0.838-4.716
				c0-1.801,0.334-3.468,1.002-5.005c0.666-1.536,1.545-2.88,2.635-4.022c1.09-1.145,2.34-2.043,3.758-2.697
				c1.414-0.653,2.887-0.979,4.41-0.979c1.227,0,2.396,0.2,3.514,0.592c1.115,0.396,2.09,0.961,2.92,1.696s1.498,1.619,2.004,2.653
				c0.502,1.038,0.756,2.195,0.756,3.474v0.572c0,0.352-0.016,0.545-0.041,0.572c-0.141,0.736-0.52,1.1-1.145,1.1h-15.441
				c0.027,1.881,0.313,3.486,0.857,4.823c0.545,1.333,1.246,2.424,2.104,3.266c0.857,0.846,1.818,1.463,2.881,1.86
				c1.061,0.396,2.109,0.592,3.146,0.592c1.115,0,2.178-0.191,3.186-0.572c1.008-0.379,2.068-1.127,3.186-2.247L322.74,93.798z
				 M316.691,83.057c0.547,0,0.9-0.104,1.064-0.307c0.162-0.206,0.244-0.553,0.244-1.043c0-0.735-0.127-1.431-0.387-2.083
				c-0.26-0.654-0.629-1.228-1.105-1.715c-0.475-0.488-1.061-0.875-1.754-1.145c-0.695-0.273-1.465-0.407-2.311-0.407
				c-0.652,0-1.301,0.146-1.939,0.449c-0.639,0.299-1.238,0.735-1.797,1.308c-0.559,0.569-1.041,1.271-1.449,2.102
				c-0.41,0.829-0.695,1.778-0.859,2.841H316.691z"/>
			<path fill="#FFFFFF" d="M342.068,98.33c-0.436,0-0.959-0.003-1.572-0.021c-0.613-0.012-1.273-0.02-1.982-0.02
				s-1.43-0.004-2.164-0.021c-0.736-0.013-1.43-0.021-2.084-0.021c-1.063,0-2.084,0.018-3.064,0.041
				c-0.979,0.028-1.852,0.04-2.611,0.04l-0.123-1.303c0.896-0.083,1.613-0.201,2.145-0.348c0.527-0.151,0.936-0.403,1.223-0.756
				c0.287-0.356,0.479-0.839,0.572-1.452c0.098-0.612,0.145-1.433,0.145-2.473V81.421c0-0.759-0.041-1.361-0.123-1.797
				c-0.084-0.435-0.252-0.781-0.512-1.043c-0.258-0.258-0.646-0.455-1.162-0.59c-0.518-0.139-1.213-0.272-2.082-0.408l-0.123-1.144
				c0.734-0.136,1.496-0.295,2.285-0.47c0.791-0.177,1.553-0.369,2.289-0.572c0.734-0.205,1.422-0.409,2.061-0.614
				c0.641-0.204,1.166-0.388,1.574-0.551l0.49,0.326c-0.137,0.847-0.219,1.684-0.244,2.514c-0.029,0.831-0.041,1.652-0.041,2.47
				c0.869-1.063,1.641-1.938,2.307-2.633c0.666-0.695,1.279-1.238,1.84-1.635c0.557-0.396,1.066-0.666,1.529-0.817
				c0.465-0.148,0.941-0.225,1.43-0.225c0.355,0,0.725,0.04,1.104,0.122c0.383,0.083,0.734,0.216,1.063,0.408
				s0.592,0.43,0.797,0.715c0.205,0.287,0.307,0.634,0.307,1.043c0,0.543-0.34,1.143-1.021,1.795
				c-0.682,0.654-1.43,1.254-2.248,1.799c-0.488-0.435-0.953-0.77-1.389-1.002c-0.436-0.229-0.967-0.349-1.59-0.349
				c-0.629,0-1.309,0.274-2.045,0.818c-0.736,0.548-1.334,1.337-1.797,2.37c-0.137,0.299-0.219,0.564-0.244,0.798
				c-0.029,0.228-0.041,0.535-0.041,0.919v10.006c0,0.654,0.047,1.179,0.143,1.574c0.094,0.396,0.318,0.7,0.672,0.919
				c0.355,0.217,0.873,0.369,1.553,0.45c0.682,0.082,1.621,0.146,2.818,0.205L342.068,98.33z"/>
		</g>
	</g>
	<rect x="172.381" y="2.821" fill="#FFFFFF" width="2" height="97.627"/>
	<path fill="#FFFFFF" d="M106.092,0C81.956,0,61.804,17.028,56.975,39.722c-5.196-4.441-11.101-6.672-17.719-6.672
		c-1.107,0-2.742,0.121-4.908,0.361L56.285,0H35.43L6.352,44.309C2.115,50.754,0,57.827,0,65.522c0,4.764,0.949,9.431,2.85,14
		c1.9,4.57,4.484,8.419,7.758,11.545c3.031,2.887,6.676,5.173,10.932,6.855c4.258,1.684,8.527,2.525,12.809,2.525
		c5.342,0,10.439-1.251,15.299-3.752c3.943-2.021,7.361-4.691,10.246-8.01c2.361-2.742,4.225-5.711,5.604-8.903
		c9.134,12.522,23.91,20.665,40.596,20.665c27.736,0,50.221-22.485,50.221-50.227C156.313,22.486,133.828,0,106.092,0z
		 M106.096,5.388c8.09,0,14.643,6.561,14.643,14.649c0,8.097-6.553,14.649-14.643,14.649c-8.094,0-14.654-6.553-14.654-14.649
		C91.441,11.948,98.002,5.388,106.096,5.388z M45.678,78.945c-3.127,3.175-6.977,4.762-11.545,4.762
		c-4.572,0-8.443-1.695-11.619-5.088c-3.176-3.39-4.762-7.515-4.762-12.375c0-4.665,1.539-8.634,4.617-11.907
		c3.078-3.365,6.928-5.051,11.547-5.051c5.098,0.097,9.283,2.045,12.557,5.845c2.787,3.176,4.184,7.026,4.184,11.546
		C50.656,71.44,48.996,75.53,45.678,78.945z M63.537,42.494c0-8.089,6.561-14.649,14.65-14.649c8.088,0,14.65,6.561,14.65,14.649
		c0,8.087-6.563,14.645-14.65,14.645C70.098,57.139,63.537,50.581,63.537,42.494z M89.604,89.765c-8.092,0-14.65-6.557-14.65-14.65
		c0-8.093,6.559-14.648,14.65-14.648c8.09,0,14.65,6.556,14.65,14.648C104.254,83.208,97.693,89.765,89.604,89.765z M106.09,55.458
		c-2.891,0-5.23-2.342-5.23-5.231c0-2.887,2.34-5.233,5.23-5.233c2.887,0,5.23,2.347,5.23,5.233
		C111.32,53.116,108.977,55.458,106.09,55.458z M124.947,88.837c-8.09,0-14.65-6.563-14.65-14.646
		c0-8.093,6.561-14.655,14.65-14.655s14.648,6.563,14.648,14.655C139.596,82.274,133.037,88.837,124.947,88.837z M134.631,55.712
		c-8.088,0-14.646-6.558-14.646-14.646c0-8.093,6.559-14.653,14.646-14.653c8.094,0,14.65,6.561,14.65,14.653
		C149.281,49.154,142.725,55.712,134.631,55.712z"/>
</g>
</svg>
