<?xml version="1.0" encoding="utf-8"?>
<!-- Generator: Adobe Illustrator 16.0.0, SVG Export Plug-In . SVG Version: 6.00 Build 0)  -->
<!DOCTYPE svg PUBLIC "-//W3C//DTD SVG 1.1//EN" "http://www.w3.org/Graphics/SVG/1.1/DTD/svg11.dtd">
<svg version="1.1" id="圖層_1" xmlns="http://www.w3.org/2000/svg" xmlns:xlink="http://www.w3.org/1999/xlink" x="0px" y="0px"
	 width="81.973px" height="46.996px" viewBox="0 0 81.973 46.996" enable-background="new 0 0 81.973 46.996" xml:space="preserve">
<g>
	<g>
		<g>
			<path fill="#FFFFFF" d="M9.469,1.263c0.152,0,0.417,0.004,0.793,0.01c0.376,0.008,0.795,0.01,1.253,0.01
				c0.46,0,0.925,0.004,1.399,0.01c0.47,0.008,0.879,0.01,1.224,0.01c0.229,0.55,0.463,1.092,0.699,1.628
				c0.234,0.534,0.475,1.078,0.718,1.626l5.417,12.057h0.057l5.301-12.306c0.217-0.498,0.428-0.998,0.633-1.502
				c0.203-0.504,0.406-1.005,0.611-1.503c0.242,0,0.59-0.002,1.043-0.01c0.453-0.006,0.916-0.01,1.387-0.01
				c0.486,0,0.939-0.002,1.361-0.01c0.42-0.006,0.719-0.01,0.896-0.01l0.039,0.651c-0.561,0.038-1.012,0.1-1.348,0.183
				c-0.34,0.082-0.598,0.21-0.775,0.383c-0.178,0.172-0.293,0.411-0.346,0.718c-0.051,0.305-0.07,0.695-0.057,1.166l0.402,12.881
				c0.012,0.307,0.053,0.561,0.125,0.767c0.068,0.202,0.195,0.373,0.383,0.505c0.184,0.135,0.445,0.234,0.785,0.298
				c0.336,0.064,0.785,0.108,1.348,0.134l-0.039,0.688c-0.229,0-0.496-0.001-0.803-0.009c-0.307-0.006-0.631-0.01-0.977-0.01
				c-0.33,0-0.67-0.002-1.014-0.009c-0.346-0.006-0.67-0.01-0.977-0.01c-0.256,0-0.52,0.004-0.793,0.01
				c-0.275,0.007-0.547,0.009-0.814,0.009s-0.523,0.004-0.766,0.01c-0.242,0.008-0.453,0.009-0.633,0.009l-0.057-0.65
				c0.459-0.038,0.828-0.098,1.102-0.182c0.273-0.083,0.482-0.213,0.631-0.391c0.146-0.181,0.236-0.42,0.27-0.719
				c0.029-0.301,0.039-0.686,0.027-1.158L27.631,4.383l-0.059-0.058c-1.123,2.592-2.23,5.157-3.32,7.705
				c-1.092,2.545-2.18,5.132-3.264,7.76l-0.918,0.114c-1.086-2.525-2.172-4.982-3.264-7.369c-1.09-2.385-2.197-4.822-3.321-7.309
				l-0.075,0.037l-0.383,11.023c-0.026,0.6-0.014,1.068,0.038,1.407c0.05,0.338,0.158,0.594,0.324,0.767
				c0.167,0.171,0.402,0.285,0.708,0.343s0.703,0.104,1.188,0.144l-0.038,0.688c-0.41,0-0.848-0.005-1.321-0.019
				c-0.472-0.012-1.013-0.019-1.626-0.019c-0.486,0-0.992,0.007-1.521,0.019c-0.53,0.014-1.018,0.019-1.465,0.019l-0.057-0.65
				c0.522-0.05,0.949-0.11,1.282-0.182c0.331-0.069,0.592-0.213,0.783-0.43c0.191-0.218,0.326-0.544,0.402-0.977
				c0.077-0.435,0.128-1.033,0.154-1.8l0.401-9.893c0.012-0.46,0.012-0.853,0-1.178c-0.014-0.326-0.045-0.606-0.095-0.844
				c-0.053-0.235-0.122-0.437-0.212-0.602c-0.09-0.166-0.204-0.319-0.344-0.459c-0.242-0.243-0.549-0.408-0.919-0.498
				c-0.371-0.09-0.798-0.147-1.282-0.173L9.469,1.263z"/>
			<path fill="#FFFFFF" d="M35.194,14.298c0-0.816,0.15-1.591,0.449-2.315c0.301-0.729,0.709-1.36,1.227-1.896
				c0.516-0.535,1.125-0.96,1.826-1.271c0.701-0.313,1.455-0.47,2.26-0.47c0.867,0,1.656,0.149,2.373,0.45
				c0.715,0.3,1.322,0.707,1.826,1.225c0.504,0.517,0.895,1.124,1.17,1.819c0.273,0.694,0.41,1.438,0.41,2.229
				c0,0.829-0.15,1.605-0.449,2.325c-0.301,0.722-0.709,1.35-1.225,1.887c-0.518,0.534-1.131,0.959-1.838,1.271
				c-0.709,0.313-1.465,0.47-2.268,0.47c-0.867,0-1.656-0.149-2.365-0.45c-0.707-0.298-1.313-0.708-1.816-1.224
				c-0.506-0.518-0.895-1.124-1.17-1.819C35.331,15.831,35.194,15.088,35.194,14.298z M41.204,19.081
				c0.561,0,1.043-0.134,1.445-0.402c0.402-0.266,0.732-0.61,0.994-1.032c0.262-0.421,0.453-0.893,0.574-1.417
				c0.121-0.522,0.182-1.046,0.182-1.568c0-0.612-0.066-1.237-0.199-1.877c-0.135-0.638-0.35-1.214-0.643-1.731
				c-0.295-0.517-0.674-0.94-1.139-1.273c-0.465-0.331-1.029-0.496-1.693-0.496c-0.574,0-1.063,0.131-1.463,0.391
				c-0.404,0.263-0.732,0.604-0.986,1.024c-0.256,0.422-0.443,0.893-0.564,1.418c-0.123,0.522-0.182,1.046-0.182,1.568
				c0,0.588,0.07,1.198,0.209,1.837c0.141,0.64,0.357,1.22,0.652,1.742c0.293,0.523,0.672,0.958,1.137,1.3
				C39.995,18.908,40.553,19.081,41.204,19.081z"/>
			<path fill="#FFFFFF" d="M54.393,20c-0.547-1.543-1.119-3.029-1.711-4.46c-0.594-1.429-1.197-2.857-1.811-4.286
				c-0.166-0.383-0.314-0.688-0.449-0.919c-0.133-0.23-0.287-0.408-0.459-0.536c-0.172-0.126-0.377-0.217-0.613-0.269
				c-0.236-0.05-0.539-0.088-0.908-0.115l0.039-0.706c0.42,0,0.891,0.006,1.416,0.019c0.521,0.012,1.07,0.02,1.645,0.02
				c0.498,0,0.953-0.008,1.369-0.02c0.414-0.013,0.807-0.019,1.176-0.019l0.039,0.633c-0.512,0.063-0.867,0.139-1.07,0.227
				c-0.205,0.09-0.309,0.244-0.309,0.46c0,0.104,0.023,0.229,0.068,0.374c0.045,0.146,0.1,0.31,0.162,0.488l2.451,6.105l2.582-6.145
				c0.064-0.164,0.119-0.315,0.164-0.449c0.045-0.135,0.066-0.252,0.066-0.354c0-0.203-0.111-0.364-0.334-0.479
				c-0.225-0.113-0.623-0.184-1.197-0.209l0.039-0.65c0.395,0,0.785,0.006,1.168,0.019c0.383,0.012,0.867,0.02,1.453,0.02
				c0.447,0,0.84-0.008,1.178-0.02c0.338-0.013,0.666-0.019,0.984-0.019l0.039,0.612c-0.383,0.05-0.688,0.107-0.92,0.172
				c-0.229,0.064-0.43,0.162-0.602,0.296s-0.33,0.315-0.469,0.546c-0.141,0.23-0.307,0.536-0.498,0.919
				c-0.229,0.446-0.488,0.977-0.773,1.588c-0.289,0.613-0.596,1.289-0.92,2.029c-0.326,0.739-0.666,1.538-1.023,2.393
				s-0.721,1.74-1.092,2.66L54.393,20z"/>
			<path fill="#FFFFFF" d="M68.846,19.636c-0.408,0-0.898-0.005-1.471-0.019c-0.576-0.012-1.17-0.019-1.781-0.019
				c-0.498,0-0.984,0.007-1.455,0.019c-0.473,0.014-0.887,0.019-1.244,0.019l-0.039-0.611c0.422-0.039,0.758-0.093,1.006-0.163
				c0.248-0.069,0.443-0.188,0.584-0.354c0.141-0.165,0.23-0.391,0.277-0.679c0.045-0.286,0.066-0.674,0.066-1.158v-5.032
				c0-0.358-0.02-0.639-0.057-0.843c-0.039-0.203-0.119-0.363-0.24-0.479c-0.121-0.115-0.299-0.203-0.535-0.268
				c-0.236-0.063-0.545-0.126-0.928-0.191l-0.059-0.554c0.396-0.076,0.795-0.157,1.197-0.239c0.4-0.085,0.777-0.171,1.129-0.259
				c0.35-0.09,0.664-0.172,0.938-0.248c0.273-0.077,0.48-0.147,0.623-0.212l0.189,0.154c-0.037,0.317-0.07,0.656-0.094,1.013
				c-0.027,0.357-0.047,0.712-0.059,1.063s-0.021,0.684-0.029,0.996c-0.006,0.313-0.008,0.585-0.008,0.813v5.071
				c0,0.307,0.018,0.552,0.057,0.737c0.039,0.185,0.125,0.327,0.258,0.429c0.135,0.104,0.336,0.173,0.604,0.211
				s0.639,0.071,1.109,0.096L68.846,19.636z M64.389,3.75c0-0.419,0.127-0.762,0.381-1.021c0.256-0.263,0.594-0.394,1.014-0.394
				c0.447,0,0.801,0.131,1.064,0.394c0.26,0.26,0.393,0.603,0.393,1.021c0,0.422-0.133,0.765-0.393,1.026
				c-0.264,0.262-0.617,0.392-1.064,0.392c-0.42,0-0.758-0.13-1.014-0.392C64.516,4.515,64.389,4.172,64.389,3.75z"/>
			<path fill="#FFFFFF" d="M80.909,17.513c-0.408,0.536-0.83,0.967-1.264,1.291c-0.434,0.326-0.85,0.577-1.244,0.756
				c-0.395,0.178-0.758,0.301-1.09,0.364c-0.334,0.063-0.596,0.096-0.785,0.096c-0.805,0-1.537-0.153-2.201-0.46
				s-1.23-0.718-1.703-1.233c-0.473-0.517-0.838-1.123-1.1-1.818c-0.264-0.696-0.393-1.434-0.393-2.21
				c0-0.843,0.154-1.625,0.469-2.345c0.313-0.722,0.725-1.351,1.234-1.886c0.51-0.537,1.098-0.956,1.76-1.263
				c0.664-0.306,1.354-0.46,2.066-0.46c0.576,0,1.125,0.092,1.646,0.278c0.523,0.184,0.98,0.449,1.367,0.792
				c0.391,0.346,0.703,0.761,0.939,1.246c0.236,0.483,0.354,1.026,0.354,1.627v0.267c0,0.167-0.006,0.256-0.02,0.269
				c-0.063,0.344-0.242,0.517-0.535,0.517h-7.234c0.014,0.88,0.146,1.634,0.4,2.258c0.258,0.626,0.586,1.138,0.988,1.532
				c0.4,0.396,0.85,0.686,1.35,0.871c0.496,0.184,0.986,0.278,1.473,0.278c0.521,0,1.021-0.091,1.494-0.269
				c0.469-0.181,0.967-0.53,1.492-1.054L80.909,17.513z M78.077,12.479c0.254,0,0.42-0.047,0.496-0.143
				c0.078-0.096,0.117-0.259,0.117-0.488c0-0.344-0.063-0.67-0.184-0.977c-0.121-0.306-0.293-0.574-0.518-0.804
				c-0.223-0.23-0.496-0.409-0.822-0.537c-0.326-0.126-0.686-0.188-1.08-0.188c-0.307,0-0.609,0.068-0.91,0.209
				c-0.299,0.14-0.58,0.343-0.842,0.612c-0.262,0.269-0.488,0.597-0.68,0.986c-0.191,0.388-0.326,0.833-0.4,1.329H78.077z"/>
			<path fill="#FFFFFF" d="M14.26,42.946c0,0.307,0.02,0.564,0.058,0.775s0.153,0.387,0.345,0.527
				c0.19,0.139,0.481,0.244,0.871,0.316c0.389,0.068,0.934,0.109,1.635,0.123l-0.037,0.688c-0.689,0-1.41-0.006-2.164-0.02
				c-0.752-0.01-1.436-0.018-2.047-0.018c-0.243,0-0.512,0.002-0.804,0.008c-0.295,0.008-0.587,0.01-0.882,0.01
				c-0.28,0-0.547,0.004-0.803,0.01c-0.256,0.008-0.472,0.01-0.65,0.01l-0.038-0.648c0.497-0.039,0.896-0.1,1.195-0.182
				c0.3-0.086,0.533-0.211,0.699-0.383c0.165-0.174,0.276-0.408,0.335-0.709c0.058-0.299,0.086-0.691,0.086-1.178V29.397
				c0-0.307-0.026-0.563-0.077-0.766c-0.052-0.205-0.156-0.375-0.315-0.51c-0.159-0.133-0.398-0.23-0.719-0.295
				c-0.317-0.064-0.745-0.107-1.28-0.135l0.037-0.689c0.204,0,0.442,0.004,0.718,0.01c0.274,0.008,0.57,0.01,0.89,0.01
				c0.32,0,0.645,0.004,0.978,0.01c0.33,0.008,0.65,0.01,0.955,0.01c0.459,0,0.983-0.031,1.569-0.096
				c0.588-0.064,1.169-0.096,1.743-0.096c0.906,0,1.77,0.09,2.594,0.268c0.822,0.18,1.543,0.473,2.162,0.881
				s1.113,0.949,1.482,1.617c0.371,0.67,0.555,1.49,0.555,2.459c0,0.984-0.197,1.838-0.592,2.564
				c-0.396,0.729-0.914,1.334-1.551,1.818c-0.639,0.486-1.352,0.848-2.145,1.092c-0.791,0.244-1.588,0.363-2.393,0.363
				c-0.484,0-0.946-0.031-1.386-0.096c-0.44-0.063-0.781-0.146-1.024-0.248V42.946z M14.26,36.612
				c0.293,0.09,0.606,0.156,0.938,0.199c0.331,0.047,0.701,0.068,1.109,0.068c0.498,0,1.007-0.078,1.531-0.23
				s0.998-0.412,1.426-0.773c0.43-0.365,0.781-0.846,1.063-1.445s0.422-1.354,0.422-2.258c0-1.469-0.398-2.553-1.197-3.256
				c-0.797-0.701-1.91-1.053-3.339-1.053c-0.447,0-0.797,0.027-1.053,0.078c-0.255,0.051-0.449,0.131-0.584,0.238
				c-0.133,0.109-0.22,0.252-0.258,0.432c-0.038,0.178-0.058,0.402-0.058,0.67V36.612z"/>
			<path fill="#FFFFFF" d="M25.938,40.038c0-0.816,0.15-1.588,0.449-2.316c0.301-0.727,0.709-1.359,1.227-1.893
				c0.516-0.537,1.125-0.963,1.826-1.275c0.703-0.313,1.455-0.469,2.26-0.469c0.867,0,1.658,0.148,2.373,0.451
				c0.715,0.301,1.322,0.707,1.828,1.225c0.502,0.516,0.893,1.121,1.166,1.816c0.275,0.697,0.412,1.439,0.412,2.23
				c0,0.828-0.15,1.605-0.449,2.324c-0.301,0.723-0.709,1.35-1.227,1.887c-0.516,0.537-1.127,0.959-1.836,1.271
				c-0.709,0.314-1.465,0.469-2.268,0.469c-0.869,0-1.656-0.148-2.365-0.449c-0.707-0.299-1.313-0.707-1.816-1.225
				c-0.506-0.518-0.895-1.121-1.168-1.818C26.077,41.571,25.938,40.827,25.938,40.038z M31.948,44.823
				c0.563,0,1.043-0.135,1.445-0.402c0.402-0.27,0.734-0.613,0.996-1.035c0.26-0.42,0.453-0.893,0.572-1.416
				c0.121-0.523,0.184-1.047,0.184-1.568c0-0.613-0.068-1.238-0.201-1.875c-0.133-0.639-0.348-1.217-0.643-1.734
				c-0.295-0.516-0.672-0.939-1.139-1.27c-0.465-0.334-1.029-0.498-1.693-0.498c-0.574,0-1.061,0.129-1.465,0.393
				c-0.4,0.26-0.73,0.6-0.984,1.021c-0.256,0.422-0.443,0.895-0.564,1.418c-0.123,0.521-0.182,1.045-0.182,1.568
				c0,0.588,0.07,1.199,0.211,1.838c0.139,0.639,0.355,1.219,0.65,1.742c0.293,0.521,0.672,0.957,1.139,1.301
				C30.739,44.649,31.297,44.823,31.948,44.823z"/>
			<path fill="#FFFFFF" d="M47.473,37.722c-0.039-0.396-0.137-0.762-0.297-1.102c-0.16-0.336-0.369-0.627-0.631-0.869
				s-0.564-0.43-0.91-0.564c-0.344-0.135-0.715-0.201-1.109-0.201c-0.244,0-0.475,0.039-0.699,0.115
				c-0.223,0.076-0.42,0.184-0.594,0.324c-0.172,0.141-0.309,0.316-0.41,0.525c-0.102,0.211-0.154,0.451-0.154,0.719
				c0,0.318,0.08,0.598,0.24,0.832c0.16,0.236,0.369,0.447,0.631,0.633c0.262,0.184,0.563,0.346,0.9,0.488
				c0.338,0.139,0.684,0.279,1.043,0.42c0.395,0.166,0.787,0.342,1.178,0.525c0.389,0.188,0.736,0.402,1.041,0.652
				c0.307,0.248,0.553,0.545,0.738,0.891c0.186,0.344,0.277,0.752,0.277,1.223c0,0.602-0.129,1.115-0.383,1.541
				c-0.256,0.428-0.586,0.783-0.996,1.064c-0.408,0.277-0.869,0.486-1.387,0.619c-0.518,0.135-1.035,0.201-1.561,0.201
				c-0.332,0-0.666-0.025-1.004-0.076c-0.338-0.049-0.654-0.107-0.947-0.172c-0.27-0.064-0.527-0.125-0.775-0.182
				c-0.25-0.057-0.52-0.098-0.813-0.125c-0.014-0.217-0.035-0.49-0.068-0.822c-0.031-0.33-0.066-0.67-0.104-1.014
				c-0.039-0.346-0.08-0.672-0.125-0.986c-0.045-0.313-0.094-0.559-0.145-0.736l0.65-0.172c0.18,0.434,0.377,0.854,0.594,1.262
				c0.217,0.41,0.475,0.77,0.775,1.082c0.299,0.313,0.643,0.564,1.023,0.756c0.383,0.191,0.836,0.287,1.359,0.287
				c0.498,0,0.938-0.137,1.32-0.41c0.383-0.277,0.574-0.695,0.574-1.256c0-0.316-0.074-0.602-0.219-0.852
				c-0.148-0.25-0.346-0.467-0.596-0.658c-0.248-0.191-0.529-0.363-0.842-0.508c-0.311-0.148-0.641-0.291-0.984-0.432
				c-0.395-0.166-0.789-0.34-1.178-0.525s-0.736-0.402-1.043-0.652c-0.307-0.248-0.555-0.545-0.746-0.887
				c-0.191-0.346-0.287-0.762-0.287-1.246c0-0.586,0.125-1.092,0.373-1.514c0.248-0.418,0.568-0.768,0.957-1.041
				s0.834-0.475,1.33-0.604c0.498-0.127,0.994-0.191,1.492-0.191c0.51,0,1.018,0.053,1.523,0.154
				c0.502,0.102,1.074,0.166,1.713,0.191c-0.039,0.406-0.066,0.793-0.078,1.158c-0.014,0.361-0.02,0.754-0.02,1.176v0.938
				L47.473,37.722z"/>
			<path fill="#FFFFFF" d="M54.883,30.448c-0.025,0.307-0.047,0.66-0.066,1.063s-0.035,0.805-0.049,1.207
				c-0.012,0.4-0.021,0.777-0.027,1.127c-0.008,0.354-0.01,0.637-0.01,0.854l3.273-0.059l0.152,0.135L58.1,35.751h-3.369v6.164
				c0,0.494,0.047,0.904,0.145,1.223c0.094,0.32,0.229,0.574,0.4,0.766s0.373,0.322,0.604,0.393c0.229,0.07,0.479,0.105,0.744,0.105
				c0.283,0,0.576-0.031,0.883-0.096s0.604-0.129,0.898-0.191l0.135,0.689c-0.498,0.242-1.033,0.449-1.609,0.621
				c-0.572,0.172-1.127,0.258-1.664,0.258c-0.369,0-0.711-0.047-1.023-0.143s-0.59-0.26-0.834-0.49
				c-0.242-0.227-0.43-0.531-0.564-0.906c-0.133-0.377-0.199-0.84-0.199-1.389v-0.518c0-0.229,0.002-0.6,0.008-1.109
				c0.008-0.51,0.012-1.193,0.012-2.049v-3.328H50.94l-0.133-0.133l0.076-0.748l1.781-0.135v-1.588c0-0.318-0.004-0.645-0.012-0.975
				c-0.006-0.332-0.008-0.652-0.008-0.957c0.191-0.078,0.389-0.156,0.592-0.24c0.205-0.084,0.402-0.162,0.594-0.24
				c0.191-0.076,0.361-0.148,0.508-0.219s0.258-0.131,0.336-0.182L54.883,30.448z"/>
			<path fill="#FFFFFF" d="M70.448,43.253c-0.408,0.535-0.83,0.967-1.264,1.293c-0.434,0.324-0.848,0.576-1.244,0.754
				c-0.396,0.18-0.76,0.301-1.092,0.363c-0.33,0.066-0.594,0.096-0.785,0.096c-0.803,0-1.537-0.152-2.199-0.459
				c-0.664-0.305-1.232-0.717-1.703-1.232c-0.473-0.518-0.84-1.123-1.102-1.82c-0.262-0.695-0.393-1.43-0.393-2.209
				c0-0.844,0.158-1.625,0.471-2.346c0.313-0.719,0.723-1.35,1.234-1.885c0.51-0.535,1.096-0.957,1.76-1.264
				c0.662-0.305,1.354-0.459,2.066-0.459c0.574,0,1.123,0.094,1.646,0.277c0.523,0.186,0.979,0.451,1.369,0.795
				c0.389,0.346,0.701,0.76,0.938,1.244c0.236,0.486,0.355,1.027,0.355,1.627v0.268c0,0.166-0.008,0.256-0.02,0.27
				c-0.066,0.344-0.244,0.514-0.537,0.514h-7.234c0.014,0.881,0.146,1.635,0.402,2.26c0.254,0.625,0.584,1.137,0.984,1.531
				c0.402,0.396,0.852,0.686,1.35,0.871s0.988,0.277,1.475,0.277c0.523,0,1.021-0.09,1.492-0.268
				c0.473-0.178,0.969-0.529,1.492-1.053L70.448,43.253z M67.614,38.22c0.256,0,0.422-0.049,0.498-0.143
				c0.076-0.098,0.115-0.26,0.115-0.49c0-0.344-0.061-0.67-0.182-0.975c-0.121-0.307-0.295-0.576-0.518-0.805
				s-0.496-0.41-0.822-0.535c-0.326-0.129-0.686-0.191-1.082-0.191c-0.307,0-0.609,0.068-0.908,0.211
				c-0.301,0.139-0.58,0.344-0.842,0.611s-0.488,0.598-0.68,0.986s-0.326,0.832-0.402,1.33H67.614z"/>
			<path fill="#FFFFFF" d="M79.504,45.376c-0.205,0-0.449-0.002-0.738-0.01c-0.287-0.006-0.596-0.01-0.928-0.01
				s-0.67-0.002-1.014-0.01c-0.346-0.006-0.67-0.008-0.977-0.008c-0.498,0-0.977,0.008-1.436,0.018
				c-0.459,0.014-0.867,0.02-1.225,0.02l-0.057-0.611c0.42-0.037,0.756-0.094,1.004-0.162c0.248-0.07,0.439-0.189,0.574-0.354
				c0.133-0.168,0.223-0.393,0.268-0.682c0.045-0.285,0.066-0.67,0.066-1.158v-4.955c0-0.355-0.018-0.639-0.057-0.842
				c-0.039-0.205-0.117-0.367-0.24-0.49c-0.121-0.119-0.303-0.213-0.545-0.275c-0.242-0.064-0.568-0.127-0.975-0.191l-0.059-0.535
				c0.346-0.064,0.701-0.139,1.072-0.221c0.369-0.082,0.727-0.174,1.072-0.268c0.344-0.096,0.666-0.191,0.965-0.289
				c0.301-0.096,0.547-0.182,0.738-0.258l0.229,0.154c-0.064,0.396-0.102,0.787-0.113,1.178c-0.014,0.389-0.02,0.773-0.02,1.156
				c0.406-0.498,0.768-0.908,1.08-1.234c0.313-0.324,0.6-0.58,0.863-0.766c0.26-0.186,0.498-0.313,0.715-0.383
				c0.219-0.068,0.441-0.105,0.67-0.105c0.168,0,0.34,0.02,0.518,0.059c0.18,0.037,0.344,0.1,0.498,0.189
				c0.154,0.092,0.277,0.203,0.373,0.336c0.096,0.135,0.145,0.297,0.145,0.488c0,0.254-0.16,0.535-0.479,0.842
				c-0.32,0.307-0.67,0.588-1.055,0.842c-0.229-0.203-0.445-0.359-0.65-0.469c-0.203-0.107-0.453-0.164-0.744-0.164
				c-0.295,0-0.613,0.129-0.959,0.385c-0.344,0.256-0.625,0.625-0.842,1.109c-0.064,0.141-0.102,0.266-0.113,0.375
				c-0.014,0.105-0.02,0.25-0.02,0.43v4.688c0,0.307,0.021,0.553,0.066,0.738s0.148,0.328,0.314,0.43
				c0.168,0.102,0.41,0.174,0.729,0.211c0.318,0.039,0.76,0.068,1.32,0.098L79.504,45.376z"/>
		</g>
	</g>
	<rect y="0.628" fill="#FFFFFF" width="0.938" height="45.74"/>
</g>
</svg>
