<?xml version="1.0" encoding="utf-8"?>
<!-- Generator: Adobe Illustrator 16.0.0, SVG Export Plug-In . SVG Version: 6.00 Build 0)  -->
<!DOCTYPE svg PUBLIC "-//W3C//DTD SVG 1.1//EN" "http://www.w3.org/Graphics/SVG/1.1/DTD/svg11.dtd">
<svg version="1.1" id="圖層_1" xmlns="http://www.w3.org/2000/svg" xmlns:xlink="http://www.w3.org/1999/xlink" x="0px" y="0px"
	 width="47.063px" height="47.064px" viewBox="0 0 47.063 47.064" enable-background="new 0 0 47.063 47.064" xml:space="preserve">
<g>
	<circle fill="#666666" cx="23.532" cy="23.533" r="12.747"/>
	<path fill="#FFFFFF" d="M23.532,0C10.536,0,0,10.536,0,23.531c0,12.998,10.536,23.533,23.532,23.533s23.531-10.535,23.531-23.533
		C47.063,10.536,36.528,0,23.532,0z M23.534,2.524c3.791,0,6.861,3.074,6.861,6.864c0,3.793-3.07,6.863-6.861,6.863
		c-3.792,0-6.866-3.07-6.866-6.863C16.668,5.598,19.742,2.524,23.534,2.524z M3.594,19.91c0-3.79,3.074-6.864,6.864-6.864
		s6.864,3.074,6.864,6.864c0,3.789-3.074,6.861-6.864,6.861S3.594,23.699,3.594,19.91z M15.807,42.058
		c-3.791,0-6.863-3.072-6.863-6.864s3.072-6.863,6.863-6.863s6.864,3.071,6.864,6.863S19.598,42.058,15.807,42.058z M23.532,25.984
		c-1.355,0-2.451-1.098-2.451-2.451c0-1.353,1.096-2.452,2.451-2.452c1.352,0,2.45,1.1,2.45,2.452
		C25.982,24.887,24.884,25.984,23.532,25.984z M32.366,41.623c-3.79,0-6.863-3.074-6.863-6.862c0-3.792,3.073-6.866,6.863-6.866
		c3.791,0,6.864,3.074,6.864,6.866C39.23,38.549,36.157,41.623,32.366,41.623z M36.904,26.104c-3.79,0-6.863-3.073-6.863-6.862
		c0-3.792,3.073-6.866,6.863-6.866c3.792,0,6.864,3.074,6.864,6.866C43.769,23.031,40.696,26.104,36.904,26.104z"/>
</g>
</svg>
