<?xml version="1.0" encoding="utf-8"?>
<!-- Generator: Adobe Illustrator 16.0.0, SVG Export Plug-In . SVG Version: 6.00 Build 0)  -->
<!DOCTYPE svg PUBLIC "-//W3C//DTD SVG 1.1//EN" "http://www.w3.org/Graphics/SVG/1.1/DTD/svg11.dtd">
<svg version="1.1" id="圖層_1" xmlns="http://www.w3.org/2000/svg" xmlns:xlink="http://www.w3.org/1999/xlink" x="0px" y="0px"
	 width="32.052px" height="46.996px" viewBox="0 0 32.052 46.996" enable-background="new 0 0 32.052 46.996" xml:space="preserve">
<g>
	<path fill="#FFFFFF" d="M16.6,0h9.771L16.093,15.655c1.015-0.113,1.78-0.169,2.3-0.169c3.651,0,6.841,1.443,9.568,4.328
		c2.728,2.907,4.091,6.457,4.091,10.65c0,4.306-1.33,8.001-3.989,11.089c-1.353,1.555-2.954,2.806-4.802,3.753
		c-2.276,1.171-4.665,1.757-7.168,1.757c-2.006,0-4.007-0.394-6.001-1.183c-1.994-0.789-3.702-1.859-5.122-3.212
		c-1.533-1.465-2.744-3.268-3.636-5.41C0.444,35.118,0,32.932,0,30.699c0-3.604,0.991-6.919,2.976-9.939L16.6,0z M15.891,23.093
		c-2.164,0-3.969,0.789-5.41,2.366c-1.442,1.534-2.163,3.393-2.163,5.579c0,2.277,0.743,4.209,2.231,5.798
		c1.487,1.589,3.301,2.384,5.443,2.384c2.141,0,3.944-0.744,5.409-2.232c1.555-1.6,2.333-3.516,2.333-5.749
		c0-2.117-0.654-3.921-1.961-5.409C20.24,24.051,18.279,23.139,15.891,23.093z"/>
</g>
</svg>
